<?xml version="1.0" standalone="no"?>
<!DOCTYPE svg PUBLIC "-//W3C//DTD SVG 20010904//EN"
 "http://www.w3.org/TR/2001/REC-SVG-20010904/DTD/svg10.dtd">
<svg version="1.0" xmlns="http://www.w3.org/2000/svg"
 width="500.000000pt" height="500.000000pt" viewBox="0 0 500.000000 500.000000"
 preserveAspectRatio="xMidYMid meet">
<metadata>
Created by potrace 1.16, written by Peter Selinger 2001-2019
</metadata>
<g transform="translate(0.000000,500.000000) scale(0.100000,-0.100000)"
fill="#4f46e5" stroke="none">
<path d="M0 2500 l0 -2500 2500 0 2500 0 0 2500 0 2500 -2500 0 -2500 0 0
-2500z m2666 1520 c439 -36 734 -209 927 -545 138 -239 205 -562 194 -930 -10
-325 -74 -579 -203 -811 -235 -419 -632 -645 -1128 -644 -486 2 -829 183
-1037 550 -116 206 -177 436 -200 755 -22 314 19 602 121 851 178 436 531 709
991 768 134 18 178 18 335 6z"/>
<path d="M2370 3764 c-272 -72 -442 -344 -507 -808 -24 -172 -24 -631 0 -806
43 -307 121 -506 254 -650 124 -134 297 -191 475 -156 107 21 171 56 259 145
183 183 281 495 298 944 29 797 -137 1236 -504 1332 -73 19 -202 18 -275 -1z"/>
</g>
</svg>
