<svg width="92.2" height="15.241" viewBox="0 0 92.2 15.241" xmlns="http://www.w3.org/2000/svg"><g id="svgGroup" stroke-linecap="round" fill-rule="evenodd" font-size="9pt" stroke="#000" stroke-width="0.25mm" fill="#000" style="stroke:#000;stroke-width:0.25mm;fill:#000"><path d="M 75 4.86 L 75 3.92 L 79.66 3.92 L 79.66 4.86 L 78.14 5.1 L 79.8 10.98 L 80.38 13.52 L 80.96 10.96 L 82.88 3.92 L 84.84 3.92 L 86.82 10.96 L 87.4 13.54 L 88.04 10.98 L 89.66 5.12 L 88.14 4.86 L 88.14 3.92 L 92.2 3.92 L 92.2 4.86 L 91.14 5.12 L 88.04 15.18 L 86.16 15.18 L 84.04 8.12 L 83.52 5.64 L 83.1 8.12 L 81.08 15.18 L 79.22 15.18 L 76.02 5.1 L 75 4.86 Z M 40.5 13.84 L 40.5 1.4 L 38.78 1.16 L 38.78 0.16 L 49.48 0.16 L 49.68 3.56 L 48.38 3.56 L 47.78 1.34 L 42.64 1.2 L 42.64 7 L 46.26 6.94 L 46.6 5.28 L 47.66 5.28 L 47.66 9.96 L 46.62 9.96 L 46.26 8.22 L 42.64 8.14 L 42.64 13.84 L 45.76 14.04 L 45.76 15.02 L 38.9 15.02 L 38.9 14.04 L 40.5 13.84 Z M 15.86 13.86 L 15.86 5.46 L 14.42 5.1 L 14.42 4.02 L 17.28 3.66 L 17.34 3.66 L 17.76 4.02 L 17.76 4.86 L 17.74 5.34 A 5.655 5.655 0 0 1 18.458 4.803 Q 18.839 4.561 19.298 4.338 A 10.552 10.552 0 0 1 19.64 4.18 A 6.494 6.494 0 0 1 20.76 3.799 A 4.937 4.937 0 0 1 21.9 3.66 Q 22.727 3.66 23.308 3.867 A 2.282 2.282 0 0 1 23.85 4.14 A 2.287 2.287 0 0 1 24.566 4.965 A 3.286 3.286 0 0 1 24.82 5.61 A 6.15 6.15 0 0 1 24.978 6.363 Q 25.1 7.171 25.1 8.28 L 25.1 13.88 L 26.5 14.02 L 26.5 15.02 L 21.76 15.02 L 21.76 14.04 L 23 13.88 L 23 8.26 Q 23 7.166 22.863 6.51 A 3.72 3.72 0 0 0 22.84 6.41 A 2.2 2.2 0 0 0 22.683 5.96 Q 22.535 5.655 22.299 5.457 A 1.371 1.371 0 0 0 22.24 5.41 Q 21.915 5.166 21.371 5.103 A 3.543 3.543 0 0 0 20.96 5.08 A 3.3 3.3 0 0 0 20.167 5.182 Q 19.827 5.266 19.468 5.42 A 5.483 5.483 0 0 0 19.42 5.44 A 7.785 7.785 0 0 0 18.421 5.964 A 6.591 6.591 0 0 0 17.96 6.28 L 17.96 13.86 L 19.32 14.04 L 19.32 15.02 L 14.6 15.02 L 14.6 14.04 L 15.86 13.86 Z M 52.92 13.84 L 52.92 1.4 L 51.3 1.16 L 51.3 0.16 L 57.04 0.16 L 57.04 1.16 L 55.06 1.4 L 55.06 13.84 L 60.22 13.66 L 61.4 10.3 L 62.62 10.48 L 61.92 15.02 L 51.26 15.02 L 51.26 14.04 L 52.92 13.84 Z M 36.96 9.46 L 30.08 9.46 A 7.5 7.5 0 0 0 30.217 10.784 Q 30.368 11.534 30.681 12.135 A 4.097 4.097 0 0 0 31 12.65 A 2.827 2.827 0 0 0 33.059 13.836 A 3.953 3.953 0 0 0 33.5 13.86 A 4.915 4.915 0 0 0 34.58 13.735 A 6.099 6.099 0 0 0 35.17 13.57 A 6.097 6.097 0 0 0 35.722 13.358 Q 36.205 13.143 36.52 12.88 L 36.9 13.76 Q 36.32 14.36 35.18 14.8 Q 34.04 15.24 32.86 15.24 A 5.902 5.902 0 0 1 31.348 15.058 A 4.044 4.044 0 0 1 29.17 13.66 A 5.464 5.464 0 0 1 28.161 11.615 Q 27.949 10.82 27.909 9.881 A 10.431 10.431 0 0 1 27.9 9.44 A 7.783 7.783 0 0 1 28.055 7.853 A 6.019 6.019 0 0 1 28.56 6.38 A 5.02 5.02 0 0 1 29.702 4.863 A 4.743 4.743 0 0 1 30.41 4.34 A 5.007 5.007 0 0 1 32.653 3.638 A 6.112 6.112 0 0 1 33.12 3.62 Q 34.668 3.62 35.642 4.334 A 3.181 3.181 0 0 1 36.01 4.65 A 3.484 3.484 0 0 1 36.862 6.089 Q 37.074 6.759 37.1 7.6 Q 37.1 8.658 36.995 9.279 A 3.864 3.864 0 0 1 36.96 9.46 Z M 6.3 15.24 Q 4.26 15.24 2.85 14.3 Q 1.44 13.36 0.72 11.65 A 8.935 8.935 0 0 1 0.138 9.553 A 12.149 12.149 0 0 1 0 7.68 Q 0 5.38 0.87 3.64 A 6.914 6.914 0 0 1 2.152 1.833 A 6.198 6.198 0 0 1 3.26 0.95 A 6.293 6.293 0 0 1 6.554 0.001 A 7.526 7.526 0 0 1 6.68 0 A 7.872 7.872 0 0 1 8.631 0.228 A 5.279 5.279 0 0 1 11.45 1.97 Q 12.888 3.687 13.073 6.55 A 13.505 13.505 0 0 1 13.1 7.42 Q 13.1 9.76 12.21 11.53 A 7.068 7.068 0 0 1 10.881 13.39 A 6.362 6.362 0 0 1 9.77 14.27 Q 8.22 15.24 6.3 15.24 Z M 64.037 7.883 A 7.366 7.366 0 0 0 63.88 9.44 A 10.328 10.328 0 0 0 63.884 9.712 Q 63.908 10.652 64.106 11.456 A 5.622 5.622 0 0 0 65.15 13.64 A 4.059 4.059 0 0 0 67.425 15.069 A 6.291 6.291 0 0 0 68.94 15.24 Q 70.32 15.24 71.53 14.56 A 4.798 4.798 0 0 0 72.452 13.887 A 5.407 5.407 0 0 0 73.48 12.56 Q 74.22 11.24 74.22 9.42 A 10.328 10.328 0 0 0 74.217 9.149 Q 74.192 8.209 73.994 7.405 A 5.622 5.622 0 0 0 72.95 5.22 A 4.059 4.059 0 0 0 70.675 3.792 A 6.291 6.291 0 0 0 69.16 3.62 Q 67.78 3.62 66.57 4.31 A 4.879 4.879 0 0 0 65.681 4.96 A 5.453 5.453 0 0 0 64.62 6.32 A 5.588 5.588 0 0 0 64.037 7.883 Z M 3.666 2.496 A 4.836 4.836 0 0 0 3.5 2.73 Q 2.381 4.418 2.38 7.673 A 18.561 18.561 0 0 0 2.38 7.68 Q 2.38 9.767 2.907 11.249 A 6.085 6.085 0 0 0 3.47 12.43 Q 4.538 14.145 6.442 14.18 A 4.334 4.334 0 0 0 6.52 14.18 A 3.363 3.363 0 0 0 9.158 12.987 A 4.73 4.73 0 0 0 9.57 12.44 A 6.032 6.032 0 0 0 10.275 10.867 Q 10.501 10.109 10.607 9.189 A 15.336 15.336 0 0 0 10.7 7.44 A 13.708 13.708 0 0 0 10.595 5.683 Q 10.479 4.787 10.235 4.049 A 5.834 5.834 0 0 0 9.62 2.73 Q 8.602 1.137 6.783 1.046 A 4.466 4.466 0 0 0 6.56 1.04 Q 4.76 1.04 3.666 2.496 Z M 71.101 13.077 A 3.083 3.083 0 0 0 71.18 12.96 A 3.836 3.836 0 0 0 71.616 11.999 Q 71.901 11.078 71.919 9.761 A 13.16 13.16 0 0 0 71.92 9.58 A 11.782 11.782 0 0 0 71.847 8.222 Q 71.768 7.548 71.606 6.987 A 4.998 4.998 0 0 0 71.24 6.06 Q 70.64 4.913 69.401 4.778 A 3.153 3.153 0 0 0 69.06 4.76 Q 67.68 4.76 66.93 5.9 A 3.833 3.833 0 0 0 66.48 6.886 Q 66.19 7.832 66.18 9.192 A 13.191 13.191 0 0 0 66.18 9.28 Q 66.18 10.798 66.507 11.886 A 4.903 4.903 0 0 0 66.88 12.8 A 2.612 2.612 0 0 0 67.496 13.577 Q 68.121 14.1 69.06 14.1 Q 70.368 14.1 71.101 13.077 Z M 30.1 8.4 L 34.9 8.4 Q 34.96 7.98 34.96 7.54 A 5.287 5.287 0 0 0 34.889 6.729 Q 34.816 6.301 34.667 5.954 A 2.516 2.516 0 0 0 34.41 5.49 A 1.704 1.704 0 0 0 33.363 4.806 A 2.755 2.755 0 0 0 32.74 4.74 Q 31.58 4.74 30.89 5.58 A 2.629 2.629 0 0 0 30.493 6.273 Q 30.167 7.085 30.1 8.4 Z" vector-effect="non-scaling-stroke"/></g></svg>